<svg width="119" height="105" viewBox="0 0 119 105" fill="none" xmlns="http://www.w3.org/2000/svg">
    <path d="M52.3692 17.3254L53.0119 16.9389C50.8866 13.8673 51.8192 9.73782 55.1601 7.72896C58.501 5.72011 62.9212 6.63103 65.0466 9.7026C67.1719 12.7742 66.2393 16.9037 62.8984 18.9125L63.3251 19.5293L63.7519 20.146C67.0928 18.1372 71.513 19.0481 73.6383 22.1197C75.7636 25.1912 74.831 29.3207 71.4901 31.3296C68.1492 33.3385 63.729 32.4275 61.6037 29.356L60.9609 29.7424L60.3182 30.1289C62.4435 33.2005 61.5109 37.33 58.17 39.3389C54.8291 41.3477 50.4089 40.4368 48.2835 37.3652C46.1582 34.2937 47.0908 30.1642 50.4317 28.1553L50.005 27.5385L49.5782 26.9218C46.2373 28.9306 41.8171 28.0197 39.6918 24.9482C37.5665 21.8766 38.4991 17.7471 41.84 15.7382C45.1809 13.7294 49.6011 14.6403 51.7264 17.7119L52.3692 17.3254Z" fill="white" stroke="black" stroke-width="1.5"/>
    <rect x="1.02749" y="0.361575" width="22.2808" height="28.6769" rx="2.25" transform="matrix(0.913213 -0.407483 0.456775 0.889583 19.6108 19.7616)" fill="white" stroke="black" stroke-width="1.5"/>
    <circle cx="81" cy="30" r="13.25" fill="white" stroke="black" stroke-width="1.5"/>
    <path d="M73.442 35.201C73.442 39.6239 69.8545 43.2101 65.4282 43.2101C61.0018 43.2101 57.4143 39.6239 57.4143 35.201C57.4143 30.7781 61.0018 27.1919 65.4282 27.1919C69.8545 27.1919 73.442 30.7781 73.442 35.201Z" fill="white" stroke="black" stroke-width="1.5"/>
    <path fill-rule="evenodd" clip-rule="evenodd" d="M4.16309 25.289C4.16309 23.949 5.33994 22.8627 6.79166 22.8627H12.4522C18.9485 22.8627 24.7801 26.5394 27.1432 32.1249L28.357 34.9937C28.885 36.2419 28.2169 37.649 26.8646 38.1364C25.5124 38.6238 23.9881 38.0071 23.46 36.7589L22.2462 33.89C20.6708 30.1664 16.7831 27.7152 12.4522 27.7152H6.79166C5.33994 27.7152 4.16309 26.629 4.16309 25.289Z" fill="white" stroke="black" stroke-width="1.5" stroke-linecap="round"/>
    <path fill-rule="evenodd" clip-rule="evenodd" d="M22.3635 34.1497C22.3635 34.1497 42.1664 37.1617 54.9739 37.8822C81.0544 39.3493 84.1535 34.1497 89.0576 34.1497C93.9618 34.1497 96.7168 38.5164 95.3874 42.9168L89.0576 63.869C87.0364 70.5596 80.4894 75.1813 73.0331 75.1813H44.9518C37.0429 75.1813 30.2257 69.9942 28.6413 62.771L22.3635 34.1497Z" fill="white" stroke="black" stroke-width="1.5" stroke-linecap="round"/>
    <path fill-rule="evenodd" clip-rule="evenodd" d="M31.0605 93.7445C31.0605 87.8419 35.9166 83.057 41.9068 83.057C47.8971 83.057 52.7531 87.8419 52.7531 93.7445C52.7531 99.647 47.8971 104.432 41.9068 104.432C35.9166 104.432 31.0605 99.647 31.0605 93.7445Z" fill="white" stroke="black" stroke-width="1.5"/>
    <path fill-rule="evenodd" clip-rule="evenodd" d="M63.3457 93.7447C63.3457 87.8422 68.2018 83.0573 74.192 83.0573C80.1823 83.0573 85.0383 87.8422 85.0383 93.7447C85.0383 99.6472 80.1823 104.432 74.192 104.432C68.2018 104.432 63.3457 99.6472 63.3457 93.7447Z" fill="white" stroke="black" stroke-width="1.5"/>
    <path d="M37.436 41.4447C38.4853 51.0095 41.3032 71.107 44.181 74.979" stroke="#1C1C1C" stroke-width="1.5" stroke-linecap="round"/>
    <path d="M80.938 41.4447C79.8888 51.0095 77.0709 71.107 74.193 74.979" stroke="#1C1C1C" stroke-width="1.5" stroke-linecap="round"/>
    <path d="M59.0413 42.4929L59.0156 75.1889" stroke="#1C1C1C" stroke-width="1.5" stroke-linecap="round"/>
    <circle cx="74.1914" cy="93.7449" r="3.99466" stroke="#1C1C1C" stroke-width="1.5"/>
    <circle cx="41.9058" cy="93.7447" r="3.99466" stroke="#1C1C1C" stroke-width="1.5"/>
    <path d="M91 13C91.71 10.6609 92.5306 8.37768 93 6" stroke="black" stroke-width="1.5" stroke-linecap="round"/>
    <path d="M97 19C104.475 12.7586 111.147 5.85762 119 0" stroke="black" stroke-width="1.5" stroke-linecap="round"/>
    <path d="M102 29C107.681 27.8729 113.239 27 119 27" stroke="black" stroke-width="1.5" stroke-linecap="round"/>
    <path d="M103 40C105.723 41.236 108.357 42.5317 111 44" stroke="black" stroke-width="1.5" stroke-linecap="round"/>
    <path d="M16 57C11.0394 55.3144 6.13054 53.9528 1 53" stroke="black" stroke-width="1.5" stroke-linecap="round"/>
    <path d="M16 70C12.4124 71.8386 8.70416 73.3903 5 75" stroke="black" stroke-width="1.5" stroke-linecap="round"/>
</svg>
