<svg width="32" height="33" viewBox="0 0 32 33" fill="none" xmlns="http://www.w3.org/2000/svg">
    <path d="M19.653 30.5307C19.0284 31.9261 17.6279 32.8983 16.0002 32.8983C14.3724 32.8983 12.972 31.9262 12.3474 30.5307C11.1087 31.4269 9.40949 31.5686 8.0001 30.7547C6.59031 29.9409 5.86335 28.3987 6.02039 26.878C4.49966 27.0347 2.95746 26.3078 2.14378 24.8982C1.3297 23.4887 1.4715 21.7897 2.36761 20.5511C0.972277 19.9265 0 18.5259 0 16.8982C0 15.2706 0.972277 13.87 2.36761 13.2454C1.4715 12.0068 1.3297 10.3078 2.14378 8.8982C2.95746 7.48861 4.49966 6.76174 6.02039 6.91853C5.86374 5.39786 6.59031 3.8556 8.0001 3.04177C9.40988 2.22795 11.1087 2.3696 12.3474 3.2657C12.972 1.87023 14.3724 0.897949 16.0002 0.897949C17.6276 0.897949 19.0284 1.87008 19.653 3.26546C20.8917 2.36935 22.5905 2.22775 24.0003 3.04158C25.4097 3.85541 26.1363 5.39761 25.9796 6.91834C27.5003 6.76155 29.0425 7.48846 29.8566 8.89805C30.6703 10.3076 30.5289 12.0066 29.6328 13.2452C31.0281 13.8698 32 15.2704 32 16.8981C32 18.5257 31.0277 19.9263 29.6324 20.5509C30.5285 21.7895 30.6703 23.4885 29.8566 24.8981C29.0425 26.3077 27.5003 27.0346 25.9796 26.8778C26.1363 28.3984 25.4097 29.9407 24.0003 30.7545C22.5905 31.5683 20.8917 31.4267 19.653 30.5307Z" fill="#FAB03D"/>
</svg>
