<svg width="120" height="105" viewBox="0 0 120 105" fill="none" xmlns="http://www.w3.org/2000/svg">
    <path d="M12.6892 40.0009V86.6862C12.6892 91.6331 16.6995 95.6433 21.6464 95.6433H39.6104C44.5573 95.6433 48.5675 91.6331 48.5675 86.6862V66.9058C48.5675 61.9589 52.5778 57.9487 57.5247 57.9487H62.9487C67.8956 57.9487 71.9059 61.9589 71.9059 66.9058V86.6862C71.9059 91.6331 75.9161 95.6433 80.863 95.6433H97.7821C102.729 95.6433 106.739 91.6331 106.739 86.6862V40.0009H12.6892Z" fill="white" stroke="black" stroke-width="1.49286"/>
    <rect x="2.42587" y="15.7755" width="114.577" height="24.6321" rx="8.21071" fill="white" stroke="black" stroke-width="1.49286"/>
    <circle cx="59.7143" cy="28.0916" r="19.4071" fill="white"/>
    <path d="M77.1121 37.1729C82.4553 27.8814 79.2545 16.0177 69.9629 10.6746C60.6714 5.33146 48.8077 8.53226 43.4646 17.8238" stroke="#1C1C1C" stroke-width="1.49286" stroke-linecap="round"/>
    <path d="M57.8571 19.0865H61.5709L67.5017 33.3641H63.3446L62.3192 30.8296H56.998L56.0003 33.3641H51.9263L57.8571 19.0865ZM61.266 27.7882L59.714 23.7612L58.1343 27.7882H61.266Z" fill="#FA0F0C"/>
    <path d="M41.8 36.6755C44.369 41.3241 47.4182 44.7736 52.8099 46.1925" stroke="#1C1C1C" stroke-width="1.49286" stroke-linecap="round"/>
    <path d="M110.845 25.4791C111.222 27.6865 112.587 33.8142 109.352 34.6229" stroke="#1C1C1C" stroke-width="1.49286" stroke-linecap="round"/>
    <path d="M103.753 29.2112C104.197 31.5289 103.487 33.2294 102.074 34.996" stroke="#1C1C1C" stroke-width="1.49286" stroke-linecap="round"/>
    <path d="M100.768 65.0398C100.792 70.2701 100.866 75.4914 101.141 80.7148" stroke="#1C1C1C" stroke-width="1.49286" stroke-linecap="round"/>
    <path d="M43.6631 88.5544C43.7554 83.3249 43.7978 78.1033 43.6394 72.875" stroke="#1C1C1C" stroke-width="1.49286" stroke-linecap="round"/>
    <path d="M77.6287 74.3701V79.7817C77.6287 84.7286 81.6389 88.7389 86.5858 88.7389H95.7296" stroke="#1C1C1C" stroke-width="1.49286" stroke-linecap="round"/>
    <path d="M64.5662 45.7188C67.5653 45.2104 70.2686 43.7484 72.4037 41.6134" stroke="black" stroke-width="1.49286" stroke-linecap="round"/>
    <path d="M65.6858 49.4509C69.394 48.8455 71.7717 47.89 74.3527 44.9723C75.4706 43.7086 76.1236 43.899 77.7323 43.832C81.1928 43.6878 84.6086 43.4795 88.0786 43.4795" stroke="black" stroke-width="1.49286" stroke-linecap="round"/>
    <path d="M41.8 11.0098C39.7145 9.74038 37.7774 8.73854 35.4553 8.02405" stroke="black" stroke-width="1.49286" stroke-linecap="round"/>
    <path d="M48.1447 7.27766C47.5816 5.41225 47.0959 3.56667 46.6519 1.67944" stroke="black" stroke-width="1.49286" stroke-linecap="round"/>
    <path d="M73.8965 8.39734L76.8822 5.41162" stroke="black" stroke-width="1.49286" stroke-linecap="round"/>
    <path d="M77.2554 10.6366C82.3923 8.53509 87.5994 6.39757 92.5572 3.9187" stroke="black" stroke-width="1.49286" stroke-linecap="round"/>
    <path d="M7.83765 27.058C7.83765 30.4944 8.57808 31.8579 11.1966 34.1491" stroke="black" stroke-width="1.49286" stroke-linecap="round"/>
    <path d="M4.47846 81.1741C4.47846 86.0088 4.10043 91.2278 5.88838 95.8331C7.43105 99.8067 10.8157 101.443 14.5552 102.821" stroke="black" stroke-width="1.49286" stroke-linecap="round"/>
</svg>
