<svg width="32" height="33" viewBox="0 0 32 33" fill="none" xmlns="http://www.w3.org/2000/svg">
    <path d="M8 0.897949C3.58172 0.897949 0 4.47967 0 8.89795C0 13.3162 3.58172 16.8979 8 16.8979C3.58172 16.8979 0 20.4797 0 24.8979C0 29.3162 3.58172 32.8979 8 32.8979C12.4183 32.8979 16 29.3162 16 24.8979C16 29.3162 19.5817 32.8979 24 32.8979C28.4183 32.8979 32 29.3162 32 24.8979C32 20.4797 28.4183 16.8979 24 16.8979C28.4183 16.8979 32 13.3162 32 8.89795C32 4.47967 28.4183 0.897949 24 0.897949C19.5817 0.897949 16 4.47967 16 8.89795C16 4.47967 12.4183 0.897949 8 0.897949Z" fill="#7F9CD4"/>
</svg>
