<svg width="60" height="60" viewBox="0 0 60 60" fill="none" xmlns="http://www.w3.org/2000/svg">
    <path d="M27.8967 0.871278C28.9571 -0.513304 31.0429 -0.513306 32.1033 0.871276L32.4598 1.33667C33.3271 2.46918 34.9355 2.71161 36.0982 1.88507L36.576 1.54541C37.9974 0.534912 39.9905 1.14971 40.5957 2.78535L40.7992 3.33513C41.2942 4.673 42.7596 5.37872 44.1143 4.93161L44.6709 4.74787C46.3271 4.20123 48.0504 5.37621 48.1467 7.11757L48.179 7.70288C48.2577 9.12722 49.45 10.2335 50.8763 10.2056L51.4623 10.1941C53.206 10.1599 54.5065 11.7906 54.0852 13.483L53.9435 14.0518C53.5989 15.4361 54.4122 16.8447 55.7833 17.2384L56.3467 17.4001C58.023 17.8814 58.785 19.823 57.8836 21.316L57.5806 21.8178C56.8433 23.039 57.2052 24.6248 58.3994 25.4051L58.8901 25.7258C60.3501 26.6798 60.5059 28.7597 59.2045 29.9207L58.767 30.3109C57.7025 31.2605 57.5809 32.8825 58.492 33.9801L58.8664 34.4311C59.9803 35.7731 59.5162 37.8066 57.9304 38.5323L57.3973 38.7763C56.1002 39.3699 55.506 40.884 56.0531 42.2014L56.2779 42.7428C56.9468 44.3535 55.9038 46.1598 54.1745 46.3859L53.5933 46.4619C52.1788 46.6468 51.1647 47.9185 51.2992 49.3386L51.3544 49.9222C51.5188 51.6585 49.9898 53.0772 48.2707 52.7835L47.6929 52.6848C46.2867 52.4446 44.9428 53.3608 44.6527 54.7575L44.5335 55.3315C44.1788 57.039 42.2996 57.944 40.7434 57.1567L40.2204 56.892C38.9475 56.248 37.3932 56.7274 36.7043 57.9766L36.4212 58.4899C35.579 60.0171 33.5165 60.3279 32.2616 59.1169L31.8397 58.7098C30.8133 57.7192 29.1867 57.7192 28.1603 58.7098L27.7384 59.1169C26.4835 60.3279 24.421 60.0171 23.5787 58.4899L23.2957 57.9766C22.6068 56.7274 21.0525 56.248 19.7796 56.892L19.2566 57.1567C17.7004 57.944 15.8211 57.039 15.4665 55.3315L15.3473 54.7575C15.0572 53.3608 13.7133 52.4446 12.3071 52.6848L11.7293 52.7835C10.0102 53.0772 8.48118 51.6585 8.64558 49.9222L8.70084 49.3386C8.83532 47.9185 7.82119 46.6468 6.40672 46.4619L5.82545 46.3859C4.09616 46.1598 3.05325 44.3535 3.72212 42.7428L3.94694 42.2014C4.49404 40.884 3.8998 39.3699 2.60267 38.7763L2.06963 38.5324C0.483796 37.8066 0.0196583 35.7731 1.13356 34.4312L1.50797 33.9801C2.41908 32.8825 2.29753 31.2605 1.233 30.3109L0.79554 29.9207C-0.505924 28.7597 -0.35005 26.6798 1.10991 25.7258L1.60064 25.4051C2.79481 24.6248 3.15674 23.039 2.4194 21.8179L2.1164 21.316C1.21495 19.823 1.97698 17.8814 3.65327 17.4001L4.21672 17.2384C5.58784 16.8447 6.4011 15.4361 6.05646 14.0518L5.91484 13.483C5.4935 11.7906 6.79397 10.1599 8.53765 10.1941L9.12375 10.2056C10.55 10.2335 11.7423 9.12723 11.821 7.70289L11.8533 7.11757C11.9496 5.37621 13.6729 4.20124 15.3291 4.74787L15.8857 4.93161C17.2404 5.37872 18.7058 4.673 19.2008 3.33513L19.4043 2.78535C20.0095 1.14972 22.0026 0.534913 23.424 1.54541L23.9018 1.88507C25.0645 2.71161 26.6728 2.46919 27.5402 1.33667L27.8967 0.871278Z" fill="#F71720"/>
</svg>
