<svg width="60" height="60" viewBox="0 0 60 60" fill="none" xmlns="http://www.w3.org/2000/svg">
    <path fill-rule="evenodd" clip-rule="evenodd" d="M30 56.3333C22.65 54.7333 0 42.2 0 19.6667C0 16.1686 1.10062 12.7593 3.14596 9.92149C5.1913 7.08374 8.07767 4.96146 11.3962 3.85528C14.7147 2.7491 18.2972 2.7151 21.6361 3.75811C24.9751 4.80111 27.9012 6.86823 30 9.66667C32.0988 6.86823 35.0249 4.80111 38.3639 3.75811C41.7028 2.7151 45.2853 2.7491 48.6038 3.85528C51.9223 4.96146 54.8087 7.08374 56.854 9.92149C58.8994 12.7593 60 16.1686 60 19.6667C60 42.2 37.35 54.7333 30 56.3333Z" fill="#DB9AD4"/>
    <path d="M9.21 21.5455H8.23C7.60636 21.5455 7.25 21.1891 7.25 20.6545C7.25 20.12 7.60636 19.7636 8.23 19.7636H12.15C12.7736 19.7636 13.13 20.12 13.13 20.6545C13.13 21.1891 12.7736 21.5455 12.15 21.5455H11.17V25.1982C11.17 25.7327 10.8136 26.0891 10.19 26.0891C9.56636 26.0891 9.21 25.7327 9.21 25.1982V21.5455ZM15.6705 20.5655V25.1982C15.6705 25.7327 15.3141 26.0891 14.6905 26.0891C14.0668 26.0891 13.7105 25.7327 13.7105 25.1982V20.5655C13.7105 20.0309 14.0668 19.6745 14.6905 19.6745C15.3141 19.6745 15.6705 20.0309 15.6705 20.5655ZM19.3643 22.7927C19.3643 25.02 18.2061 26.1782 17.0479 26.1782C16.5134 26.1782 16.157 25.8218 16.157 25.2873C16.157 24.3964 17.4043 24.8418 17.4043 22.7927V20.6545C17.4043 20.12 17.7606 19.7636 18.3843 19.7636H21.547C22.1706 19.7636 22.527 20.12 22.527 20.6545V25.1982C22.527 25.7327 22.1706 26.0891 21.547 26.0891C20.9234 26.0891 20.567 25.7327 20.567 25.1982V21.5455H19.3643V22.7927ZM26.4428 23.2382H25.641V24.3964H26.4428C26.8883 24.3964 27.1556 24.1291 27.1556 23.8173C27.1556 23.5055 26.8883 23.2382 26.4428 23.2382ZM25.641 21.6345H26.4428C28.2246 21.6345 29.2046 22.6145 29.2046 23.8173C29.2046 25.02 28.2246 26 26.4428 26H24.661C24.0374 26 23.681 25.6436 23.681 25.1091V20.5655C23.681 20.0309 24.0374 19.6745 24.661 19.6745C25.2846 19.6745 25.641 20.0309 25.641 20.5655V21.6345ZM32.4126 23.7282L31.9226 24.1736V25.1982C31.9226 25.7327 31.5662 26.0891 30.9426 26.0891C30.319 26.0891 29.9626 25.7327 29.9626 25.1982V20.5655C29.9626 20.0309 30.319 19.6745 30.9426 19.6745C31.5662 19.6745 31.9226 20.0309 31.9226 20.5655V21.8127L33.8826 19.9418C33.8826 19.9418 34.1499 19.6745 34.5953 19.6745C35.1299 19.6745 35.4862 20.0309 35.4862 20.5655C35.4862 21.0109 35.1299 21.2782 35.1299 21.2782L33.8826 22.4809L35.3972 24.3964C35.3972 24.3964 35.7535 24.8418 35.7535 25.1982C35.7535 25.7327 35.3972 26.0891 34.7735 26.0891C34.2835 26.0891 33.9272 25.6436 33.9272 25.6436L32.4126 23.7282ZM38.2912 22.6145H38.3803L39.8949 20.5655C40.2958 19.9864 40.6076 19.6745 41.1421 19.6745C41.7658 19.6745 42.1221 20.0398 42.1221 20.5655V25.1982C42.1221 25.7327 41.7658 26.0891 41.1421 26.0891C40.5185 26.0891 40.1621 25.7327 40.1621 25.1982V23.1491H40.073L38.5585 25.1982C38.1576 25.7773 37.8458 26.0891 37.3112 26.0891C36.6876 26.0891 36.3312 25.7238 36.3312 25.1982V20.5655C36.3312 20.0309 36.6876 19.6745 37.3112 19.6745C37.9349 19.6745 38.2912 20.0309 38.2912 20.5655V22.6145ZM47.7397 21.2782V22.08H48.5415C48.8979 22.08 49.0761 21.9018 49.0761 21.6791C49.0761 21.4564 48.8979 21.2782 48.5415 21.2782H47.7397ZM47.7397 23.5055V24.4855H48.8088C49.2097 24.4855 49.4325 24.2627 49.4325 23.9955C49.4325 23.7282 49.2097 23.5055 48.8088 23.5055H47.7397ZM46.7597 19.7636H48.5415C50.4125 19.7636 51.1252 20.4764 51.1252 21.4118C51.1252 22.3473 50.1452 22.6145 50.1452 22.6145V22.7036C50.1452 22.7036 51.4815 22.9709 51.4815 24.1736C51.4815 25.1982 50.6797 26 48.8088 26H46.7597C46.1361 26 45.7797 25.6436 45.7797 25.1091V20.6545C45.7886 20.12 46.1361 19.7636 46.7597 19.7636ZM14.5121 36.06H15.5812L15.0912 34.7236H15.0021L14.5121 36.06ZM14.1112 37.6636L13.8885 38.1982C13.6658 38.7327 13.3094 39.0891 12.8194 39.0891C12.2403 39.0891 11.8394 38.6882 11.8394 38.1982C11.8394 37.9309 12.0621 37.3964 12.0621 37.3964L13.4876 33.6545C13.7549 32.9864 14.1558 32.5855 15.0467 32.5855C15.9376 32.5855 16.3474 32.9864 16.6058 33.6545L18.0312 37.3964C18.0312 37.3964 18.2539 37.9309 18.2539 38.1982C18.2539 38.6882 17.853 39.0891 17.2739 39.0891C16.7839 39.0891 16.4276 38.7327 16.2049 38.1982L15.9821 37.6636H14.1112ZM20.7906 34.2782V35.08H21.5924C21.9488 35.08 22.127 34.9018 22.127 34.6791C22.127 34.4564 21.9488 34.2782 21.5924 34.2782H20.7906ZM20.7906 36.5055V37.4855H21.8597C22.2606 37.4855 22.4833 37.2627 22.4833 36.9955C22.4833 36.7282 22.2606 36.5055 21.8597 36.5055H20.7906ZM19.8106 32.7636H21.5924C23.4633 32.7636 24.1761 33.4764 24.1761 34.4118C24.1761 35.3473 23.1961 35.6145 23.1961 35.6145V35.7036C23.1961 35.7036 24.5324 35.9709 24.5324 37.1736C24.5324 38.1982 23.7306 39 21.8597 39H19.8106C19.187 39 18.8306 38.6436 18.8306 38.1091V33.6545C18.8395 33.12 19.187 32.7636 19.8106 32.7636ZM27.2462 35.5255H28.048C28.4935 35.5255 28.7608 35.2582 28.7608 34.9464C28.7608 34.6345 28.4935 34.3673 28.048 34.3673H27.2462V35.5255ZM28.048 37.1291H27.2462V38.1982C27.2462 38.7327 26.8898 39.0891 26.2662 39.0891C25.6426 39.0891 25.2862 38.7327 25.2862 38.1982V33.6545C25.2862 33.12 25.6426 32.7636 26.2662 32.7636H28.048C29.8298 32.7636 30.8098 33.7436 30.8098 34.9464C30.8098 36.1491 29.8298 37.1291 28.048 37.1291ZM37.3142 35.2582V36.5055C37.3142 38.02 36.156 39.1782 34.3296 39.1782C32.5033 39.1782 31.3451 38.02 31.3451 36.5055V35.2582C31.3451 33.7436 32.5033 32.5855 34.3296 32.5855C36.156 32.5855 37.3142 33.7436 37.3142 35.2582ZM35.3096 36.5055V35.2582C35.3096 34.5455 34.8642 34.1 34.3296 34.1C33.7951 34.1 33.3496 34.5455 33.3496 35.2582V36.5055C33.3496 37.2182 33.7951 37.6636 34.3296 37.6636C34.8642 37.6636 35.3096 37.2182 35.3096 36.5055ZM40.2096 35.5255H41.0115C41.4569 35.5255 41.7242 35.2582 41.7242 34.9464C41.7242 34.6345 41.4569 34.3673 41.0115 34.3673H40.2096V35.5255ZM41.0115 37.1291H40.2096V38.1982C40.2096 38.7327 39.8533 39.0891 39.2296 39.0891C38.606 39.0891 38.2496 38.7327 38.2496 38.1982V33.6545C38.2496 33.12 38.606 32.7636 39.2296 32.7636H41.0115C42.7933 32.7636 43.7733 33.7436 43.7733 34.9464C43.7733 36.1491 42.7933 37.1291 41.0115 37.1291ZM46.4912 33.5655V38.1982C46.4912 38.7327 46.1349 39.0891 45.5112 39.0891C44.8876 39.0891 44.5312 38.7327 44.5312 38.1982V33.5655C44.5312 33.0309 44.8876 32.6745 45.5112 32.6745C46.1349 32.6745 46.4912 33.0309 46.4912 33.5655Z" fill="white"/>
</svg>