<svg width="24" height="24" viewBox="0 0 24 24" fill="none" xmlns="http://www.w3.org/2000/svg">
    <path d="M15.8903 9.24528H13.7744V7.95979C13.7744 7.65745 13.849 7.41752 13.9851 7.25937C14.1098 7.1145 14.3445 6.97042 14.8207 6.97042H16H16.4772V6.49318V4.18328V3.78084L16.0806 3.7129L16 4.18328L16.0805 3.71288L16.0804 3.71286L16.0801 3.71281L16.0792 3.71266L16.0763 3.71217L16.0659 3.71043L16.0276 3.70419C15.9945 3.69889 15.9468 3.69143 15.8866 3.68253C15.7662 3.66475 15.5955 3.64115 15.392 3.61758C14.9872 3.57067 14.4439 3.52277 13.9068 3.52277C12.7415 3.52277 11.726 3.87912 11.0014 4.60764C10.2767 5.33637 9.898 6.38214 9.898 7.65344V9.24528H8H7.52277V9.72251V12.4372V12.9144H8H9.898V19V19.4772H10.3752H13.2971H13.7744V19V12.9144H15.4756H15.8854L15.9473 12.5093L16.362 9.79458L16.446 9.24528H15.8903Z" stroke="#1C1C1C" stroke-width="0.954464"/>
</svg>
