<svg width="70" height="70" viewBox="0 0 70 70" fill="none" xmlns="http://www.w3.org/2000/svg">
    <circle cx="35" cy="35" r="35" fill="#7F9CD4"/>
    <path d="M15.6393 44.9973C14.5464 44.9973 14 45.5437 14 46.6184V49.5509C14 50.6437 14.7286 51.3723 16.0036 51.3723C17.2786 51.3723 18.0071 50.6437 18.0071 49.5509V48.6402H24.8375V49.5509C24.8375 50.6437 25.5661 51.3723 26.8411 51.3723C28.1161 51.3723 28.8446 50.6437 28.8446 49.5509V46.6548C28.8446 45.5437 28.2982 44.9973 27.2054 44.9973H27.0232V37.7116C27.0232 36.6187 26.2946 35.8902 25.0196 35.8902H18.7357C17.4607 35.8902 16.7321 36.6187 16.7321 37.7116V42.083C16.7321 43.7223 15.6393 44.9973 15.6393 44.9973ZM23.0161 44.9973H19.7375V44.8152C19.7375 44.8152 20.7393 43.7223 20.7393 42.083V39.533H23.0161V44.9973Z" fill="white"/>
    <path d="M34.3146 37.5294C34.3146 36.4366 33.586 35.708 32.311 35.708C31.036 35.708 30.3075 36.4366 30.3075 37.5294V47.0009C30.3075 48.0937 31.036 48.8223 32.311 48.8223C33.586 48.8223 34.3146 48.0937 34.3146 47.0009V44.0866H37.9575V47.0009C37.9575 48.0937 38.686 48.8223 39.961 48.8223C41.236 48.8223 41.9646 48.0937 41.9646 47.0009V37.5294C41.9646 36.4366 41.236 35.708 39.961 35.708C38.686 35.708 37.9575 36.4366 37.9575 37.5294V40.6259H34.3146V37.5294Z" fill="white"/>
    <path d="M49.4239 35.8902C45.9632 35.8902 43.9597 37.8937 43.9597 39.9884C43.9597 42.2652 46.0543 42.9937 46.0543 42.9937V43.1759L44.1418 45.3616C44.1418 45.3616 43.4132 46.1812 43.4132 47.0009C43.4132 48.0937 44.1418 48.8223 45.4168 48.8223C46.4186 48.8223 47.1472 47.9116 47.1472 47.9116L50.2436 44.0866H51.1543V47.0191C51.1543 48.0937 51.8829 48.8223 53.1579 48.8223C54.4329 48.8223 55.1614 48.0937 55.1614 47.0009V37.7116C55.1614 36.6187 54.4329 35.8902 53.1579 35.8902C53.1579 35.8902 50.2254 35.8902 49.4239 35.8902ZM49.4239 40.9902C48.6043 40.9902 48.1489 40.5348 48.1489 39.9884C48.1489 39.4419 48.6043 38.9866 49.4239 38.9866C49.7336 38.9866 51.1543 38.9866 51.1543 38.9866V40.9902H49.4239Z" fill="white"/>
    <path d="M16.6595 21.64V26.56C16.6595 27.28 17.1395 27.76 17.9795 27.76C18.8195 27.76 19.2995 27.28 19.2995 26.56V21.64H20.6195C21.4595 21.64 21.9395 21.16 21.9395 20.44C21.9395 19.72 21.4595 19.24 20.6195 19.24H15.3395C14.4995 19.24 14.0195 19.72 14.0195 20.44C14.0195 21.16 14.4995 21.64 15.3395 21.64H16.6595Z" fill="white"/>
    <path d="M30.227 22.6C30.227 20.56 28.667 19 26.207 19C23.747 19 22.187 20.56 22.187 22.6V24.28C22.187 26.32 23.747 27.88 26.207 27.88C28.667 27.88 30.227 26.32 30.227 24.28V22.6ZM27.527 24.28C27.527 25.24 26.927 25.84 26.207 25.84C25.487 25.84 24.887 25.24 24.887 24.28V22.6C24.887 21.64 25.487 21.04 26.207 21.04C26.927 21.04 27.527 21.64 27.527 22.6V24.28Z" fill="white"/>
    <path d="M34.127 21.28H35.207C35.687 21.28 35.927 21.52 35.927 21.82C35.927 22.12 35.687 22.36 35.207 22.36H34.127V21.28ZM34.127 24.28H35.567C36.107 24.28 36.407 24.58 36.407 24.94C36.407 25.3 36.107 25.6 35.567 25.6H34.127V24.28ZM32.807 19.24C31.967 19.24 31.499 19.72 31.487 20.44V26.44C31.487 27.16 31.967 27.64 32.807 27.64H35.567C38.087 27.64 39.167 26.56 39.167 25.18C39.167 23.56 37.367 23.2 37.367 23.2V23.08C37.367 23.08 38.687 22.72 38.687 21.46C38.687 20.2 37.727 19.24 35.207 19.24H32.807Z" fill="white"/>
    <path d="M43.0023 23.68L43.6623 21.88H43.7823L44.4423 23.68H43.0023ZM42.4623 25.84H44.9823L45.2823 26.56C45.5823 27.28 46.0623 27.76 46.7223 27.76C47.5023 27.76 48.0423 27.22 48.0423 26.56C48.0423 26.2 47.7423 25.48 47.7423 25.48L45.8223 20.44C45.4743 19.54 44.9223 19 43.7223 19C42.5223 19 41.9823 19.54 41.6223 20.44L39.7023 25.48C39.7023 25.48 39.4023 26.2 39.4023 26.56C39.4023 27.22 39.9423 27.76 40.7223 27.76C41.3823 27.76 41.8623 27.28 42.1623 26.56L42.4623 25.84Z" fill="white"/>
    <path d="M51.4591 22.96V21.4H52.5391C53.1391 21.4 53.4991 21.76 53.4991 22.18C53.4991 22.6 53.1391 22.96 52.5391 22.96H51.4591ZM52.5391 25.12C54.9391 25.12 56.2591 23.8 56.2591 22.18C56.2591 20.56 54.9391 19.24 52.5391 19.24H50.1391C49.2991 19.24 48.8191 19.72 48.8191 20.44V26.56C48.8191 27.28 49.2991 27.76 50.1391 27.76C50.9791 27.76 51.4591 27.28 51.4591 26.56V25.12H52.5391Z" fill="white"/>
</svg>
