<svg width="24" height="24" viewBox="0 0 24 24" fill="none" xmlns="http://www.w3.org/2000/svg">
    <path d="M9.9 9.0999H9.5V9.5999V19.9999V20.4999H10H13.2H13.7V19.9999V14.8999C13.7 14.0999 13.9 13.4999 14.1 13.1999C14.3 12.8999 14.7 12.6999 15.3 12.6999C15.5 12.6999 15.6 12.6999 15.7 12.7999C15.8 12.8999 15.9 12.9999 16 13.0999C16.2 13.4999 16.3 14.0999 16.3 14.8999V19.8999V20.3999H16.8H20H20.5V19.9999V14.1999C20.5 12.5999 20.3 11.2999 19.6 10.2999C18.9 9.2999 17.7 8.8999 16.1 8.8999C15 8.8999 14.1 9.1999 13.4 9.6999V9.5999V9.0999H12.9H9.9Z" stroke="#1C1C1C" stroke-width="0.97"/>
    <path d="M4 19.9V20.3H4.5H7.7H8.1V19.9V9.4V9H7.7H4.5H4V9.4V19.9Z" stroke="#1C1C1C" stroke-width="0.97"/>
    <path d="M6.1002 8.8C7.70182 8.8 9.0002 7.50163 9.0002 5.9C9.0002 4.29837 7.70182 3 6.1002 3C4.49857 3 3.2002 4.29837 3.2002 5.9C3.2002 7.50163 4.49857 8.8 6.1002 8.8Z" stroke="#1C1C1C" stroke-width="0.97" stroke-miterlimit="10"/>
</svg>
