<svg width="70" height="70" viewBox="0 0 70 70" fill="none" xmlns="http://www.w3.org/2000/svg">
    <g clip-path="url(#clip0_6875_181653)">
        <path d="M68.9002 54.3996L60.9002 46.7996L64.8002 43.3996C66.2002 42.1996 66.2002 40.1996 64.9002 38.8996L51.6002 26.3996L55.8002 22.1996C56.7002 21.2996 56.6002 19.9996 55.7002 19.0996L35.6002 0.199609C35.3002 -0.100391 34.8002 -0.100391 34.5002 0.199609L14.3002 19.0996C13.4002 19.8996 13.4002 21.2996 14.2002 22.1996L18.4002 26.3996L5.10023 38.8996C3.80023 40.1996 3.80023 42.1996 5.20023 43.3996L9.10023 46.7996L1.10023 54.3996C-0.399774 55.7996 -0.399774 57.9996 1.00023 59.3996C4.80023 63.2996 14.2002 69.9996 35.0002 69.9996C55.8002 69.9996 65.2002 63.2996 69.0002 59.3996C70.4002 57.8996 70.3002 55.6996 68.9002 54.3996Z" fill="#045495"/>
        <path d="M18.7003 40.1994C18.1003 40.1994 17.8003 39.8994 17.8003 39.2994C17.8003 38.7994 18.1003 38.3994 18.7003 38.3994H22.4003C23.0003 38.3994 23.3003 38.6994 23.3003 39.2994C23.3003 39.7994 23.0003 40.1994 22.4003 40.1994H21.5003V43.6994C21.5003 44.1994 21.2003 44.5994 20.6003 44.5994C20.0003 44.5994 19.7003 44.2994 19.7003 43.6994V40.1994H18.7003Z" fill="white"/>
        <path d="M29.2004 42.0998C29.2004 43.4998 28.1004 44.6998 26.3004 44.6998C24.5004 44.6998 23.4004 43.5998 23.4004 42.0998V40.8998C23.4004 39.4998 24.5004 38.2998 26.3004 38.2998C28.1004 38.2998 29.2004 39.3998 29.2004 40.8998V42.0998ZM27.3004 40.8998C27.3004 40.1998 26.9004 39.7998 26.4004 39.7998C25.9004 39.7998 25.5004 40.1998 25.5004 40.8998V42.0998C25.5004 42.7998 25.9004 43.1998 26.4004 43.1998C26.9004 43.1998 27.3004 42.7998 27.3004 42.0998V40.8998Z" fill="white"/>
        <path d="M32.7001 38.4998C34.5001 38.4998 35.2001 39.1998 35.2001 40.0998C35.2001 40.9998 34.3001 41.1998 34.3001 41.1998V41.2998C34.3001 41.2998 35.6001 41.5998 35.6001 42.6998C35.6001 43.6998 34.8001 44.3998 33.0001 44.3998H31.0001C30.4001 44.3998 30.1001 44.0998 30.1001 43.4998V39.1998C30.1001 38.6998 30.4001 38.2998 31.0001 38.2998H32.7001V38.4998ZM32.0001 40.6998H32.8001C33.1001 40.6998 33.3001 40.4998 33.3001 40.2998C33.3001 40.0998 33.1001 39.8998 32.8001 39.8998H32.0001V40.6998ZM32.0001 42.9998H33.0001C33.4001 42.9998 33.6001 42.7998 33.6001 42.4998C33.6001 42.1998 33.4001 41.9998 33.0001 41.9998H32.0001V42.9998Z" fill="white"/>
        <path d="M37.7003 43.6998C37.5003 44.1998 37.1003 44.5998 36.7003 44.5998C36.1003 44.5998 35.8003 44.1998 35.8003 43.6998C35.8003 43.3998 36.0003 42.8998 36.0003 42.8998L37.4003 39.2998C37.7003 38.6998 38.0003 38.2998 38.9003 38.2998C39.8003 38.2998 40.1003 38.6998 40.4003 39.2998L41.8003 42.8998C41.8003 42.8998 42.0003 43.3998 42.0003 43.6998C42.0003 44.1998 41.6003 44.5998 41.1003 44.5998C40.6003 44.5998 40.3003 44.2998 40.1003 43.6998L39.9003 43.1998H38.1003L37.7003 43.6998ZM39.3003 41.5998L38.8003 40.2998H38.7003L38.2003 41.5998H39.3003Z" fill="white"/>
        <path d="M44.3005 42.7V43.7C44.3005 44.2 44.0005 44.6 43.4005 44.6C42.8005 44.6 42.5005 44.3 42.5005 43.7V39.4C42.5005 38.9 42.8005 38.5 43.4005 38.5H45.0005C46.7005 38.5 47.6005 39.4 47.6005 40.6C47.6005 41.8 46.7005 42.7 45.0005 42.7H44.3005ZM45.0005 41.1C45.4005 41.1 45.7005 40.8 45.7005 40.5C45.7005 40.2 45.5005 40 45.0005 40H44.2005V41.1H45.0005Z" fill="white"/>
        <path d="M52.2003 41.5002C52.2003 41.9002 51.9003 42.3002 51.3003 42.3002H48.7003C48.2003 42.3002 47.8003 42.0002 47.8003 41.5002C47.8003 41.0002 48.1003 40.7002 48.7003 40.7002H51.3003C51.9003 40.8002 52.2003 41.1002 52.2003 41.5002Z" fill="white"/>
        <path d="M18.7003 48.7002C19.3003 48.7002 19.6003 49.0002 19.6003 49.6002V53.9002C19.6003 54.4002 19.3003 54.8002 18.7003 54.8002C18.1003 54.8002 17.8003 54.5002 17.8003 53.9002V50.4002H16.1003V53.9002C16.1003 54.4002 15.8003 54.8002 15.2003 54.8002C14.6003 54.8002 14.3003 54.5002 14.3003 53.9002V49.6002C14.3003 49.1002 14.6003 48.7002 15.2003 48.7002H18.7003Z" fill="white"/>
        <path d="M22.2003 53.9C22.0003 54.4 21.6003 54.8 21.2003 54.8C20.6003 54.8 20.3003 54.4 20.3003 53.9C20.3003 53.6 20.5003 53.1 20.5003 53.1L21.9003 49.5C22.2003 48.9 22.5003 48.5 23.4003 48.5C24.3003 48.5 24.6003 48.9 24.9003 49.5L26.3003 53.1C26.3003 53.1 26.5003 53.6 26.5003 53.9C26.5003 54.4 26.1003 54.8 25.6003 54.8C25.1003 54.8 24.8003 54.5 24.6003 53.9L24.4003 53.4H22.6003L22.2003 53.9ZM23.8003 51.8L23.3003 50.5H23.2003L22.7003 51.8H23.8003Z" fill="white"/>
        <path d="M28.8005 52.9002V53.9002C28.8005 54.4002 28.5005 54.8002 27.9005 54.8002C27.3005 54.8002 27.0005 54.5002 27.0005 53.9002V49.6002C27.0005 49.1002 27.3005 48.7002 27.9005 48.7002H29.6005C31.3005 48.7002 32.2005 49.6002 32.2005 50.8002C32.2005 52.0002 31.3005 52.9002 29.6005 52.9002H28.8005ZM29.5005 51.3002C29.9005 51.3002 30.2005 51.0002 30.2005 50.7002C30.2005 50.4002 29.9005 50.1002 29.5005 50.1002H28.7005V51.2002H29.5005V51.3002Z" fill="white"/>
        <path d="M33.3004 50.3996C32.7004 50.3996 32.4004 50.0996 32.4004 49.4996C32.4004 48.9996 32.7004 48.5996 33.3004 48.5996H37.0004C37.6004 48.5996 37.9004 48.8996 37.9004 49.4996C37.9004 49.9996 37.6004 50.3996 37.0004 50.3996H36.1004V53.8996C36.1004 54.3996 35.8004 54.7996 35.2004 54.7996C34.6004 54.7996 34.3004 54.4996 34.3004 53.8996V50.3996H33.3004Z" fill="white"/>
        <path d="M40.4001 50.8996H42.1001V49.4996C42.1001 48.9996 42.4001 48.5996 43.0001 48.5996C43.6001 48.5996 43.9001 48.8996 43.9001 49.4996V53.8996C43.9001 54.3996 43.6001 54.7996 43.0001 54.7996C42.4001 54.7996 42.1001 54.4996 42.1001 53.8996V52.4996H40.4001V53.8996C40.4001 54.3996 40.1001 54.7996 39.5001 54.7996C38.9001 54.7996 38.6001 54.4996 38.6001 53.8996V49.4996C38.6001 48.9996 38.9001 48.5996 39.5001 48.5996C40.1001 48.5996 40.4001 48.8996 40.4001 49.4996V50.8996Z" fill="white"/>
        <path d="M46.9001 50.4002V50.9002H48.5001C49.0001 50.9002 49.4001 51.2002 49.4001 51.7002C49.4001 52.2002 49.1001 52.5002 48.5001 52.5002H46.9001V53.0002H49.3001C49.9001 53.0002 50.2001 53.3002 50.2001 53.9002C50.2001 54.5002 49.9001 54.8002 49.3001 54.8002H46.0001C45.4001 54.8002 45.1001 54.5002 45.1001 53.9002V49.6002C45.1001 49.1002 45.4001 48.7002 46.0001 48.7002H49.2001C49.8001 48.7002 50.1001 49.0002 50.1001 49.6002C50.1001 50.1002 49.8001 50.5002 49.2001 50.5002H46.9001V50.4002Z" fill="white"/>
        <path d="M52.8005 52.9002V53.9002C52.8005 54.4002 52.5005 54.8002 51.9005 54.8002C51.3005 54.8002 51.0005 54.5002 51.0005 53.9002V49.6002C51.0005 49.1002 51.3005 48.7002 51.9005 48.7002H53.6005C55.3005 48.7002 56.2005 49.6002 56.2005 50.8002C56.2005 52.0002 55.3005 52.9002 53.6005 52.9002H52.8005ZM53.5005 51.3002C53.9005 51.3002 54.2005 51.0002 54.2005 50.7002C54.2005 50.4002 53.9005 50.1002 53.5005 50.1002H52.7005V51.2002H53.5005V51.3002Z" fill="white"/>
        <path d="M24.3004 64.1002C24.1004 64.6002 23.7004 65.0002 23.3004 65.0002C22.7004 65.0002 22.4004 64.6002 22.4004 64.1002C22.4004 63.8002 22.6004 63.3002 22.6004 63.3002L24.0004 59.7002C24.3004 59.1002 24.6004 58.7002 25.5004 58.7002C26.4004 58.7002 26.7004 59.1002 27.0004 59.7002L28.4004 63.3002C28.4004 63.3002 28.6004 63.8002 28.6004 64.1002C28.6004 64.6002 28.2004 65.0002 27.7004 65.0002C27.2004 65.0002 26.9004 64.7002 26.7004 64.1002L26.5004 63.6002H24.7004L24.3004 64.1002ZM25.9004 62.1002L25.4004 60.8002H25.3004L24.8004 62.1002H25.9004Z" fill="white"/>
        <path d="M30.9001 63.0998V64.0998C30.9001 64.5998 30.6001 64.9998 30.0001 64.9998C29.4001 64.9998 29.1001 64.6998 29.1001 64.0998V59.6998C29.1001 59.1998 29.4001 58.7998 30.0001 58.7998C30.6001 58.7998 30.9001 59.0998 30.9001 59.6998V60.8998L32.8001 59.0998C32.8001 59.0998 33.1001 58.7998 33.5001 58.7998C34.0001 58.7998 34.4001 59.0998 34.4001 59.6998C34.4001 60.0998 34.1001 60.3998 34.1001 60.3998L32.9001 61.4998L34.3001 63.2998C34.3001 63.2998 34.6001 63.6998 34.6001 64.0998C34.6001 64.5998 34.3001 64.9998 33.7001 64.9998C33.2001 64.9998 32.9001 64.5998 32.9001 64.5998L31.5001 62.7998L30.9001 63.0998Z" fill="white"/>
        <path d="M36.0001 64.8998C35.4001 64.8998 35.1001 64.5998 35.1001 63.9998V59.6998C35.1001 59.1998 35.4001 58.7998 36.0001 58.7998C36.6001 58.7998 36.9001 59.0998 36.9001 59.6998V63.1998H38.5001V59.6998C38.5001 59.1998 38.8001 58.7998 39.4001 58.7998C40.0001 58.7998 40.3001 59.0998 40.3001 59.6998V63.1998H40.4001C40.9001 63.1998 41.2001 63.4998 41.2001 63.9998V65.3998C41.2001 65.8998 40.9001 66.2998 40.3001 66.2998C39.7001 66.2998 39.4001 65.9998 39.4001 65.3998V64.9998H36.0001V64.8998Z" fill="white"/>
        <path d="M43.9001 64.0998C43.9001 64.5998 43.6001 64.9998 43.0001 64.9998C42.4001 64.9998 42.1001 64.6998 42.1001 64.0998V59.6998C42.1001 59.1998 42.4001 58.7998 43.0001 58.7998C43.6001 58.7998 43.9001 59.0998 43.9001 59.6998V64.0998Z" fill="white"/>
        <path d="M44.2002 57.5002C44.2002 57.1002 44.5002 56.7002 45.1002 56.7002C45.6002 56.7002 46.0002 57.0002 46.0002 57.5002C46.0002 58.0002 45.7002 58.3002 45.1002 58.3002C44.5002 58.3002 44.2002 58.0002 44.2002 57.5002ZM47.0002 64.1002C47.0002 64.6002 46.7002 65.0002 46.1002 65.0002C45.5002 65.0002 45.2002 64.7002 45.2002 64.1002V59.7002C45.2002 59.2002 45.5002 58.8002 46.1002 58.8002C46.7002 58.8002 47.0002 59.1002 47.0002 59.7002V64.1002ZM46.2002 57.5002C46.2002 57.1002 46.5002 56.7002 47.1002 56.7002C47.6002 56.7002 48.0002 57.0002 48.0002 57.5002C48.0002 58.0002 47.7002 58.3002 47.1002 58.3002C46.6002 58.3002 46.2002 58.0002 46.2002 57.5002Z" fill="white"/>
        <path d="M31.1005 27.5998C31.4005 27.6998 31.6005 27.8998 31.6005 28.0998C31.6005 28.5998 31.0005 29.3998 30.9005 29.6998C30.9005 29.8998 30.7005 29.9998 30.5005 29.9998C30.3005 29.9998 30.1005 29.8998 30.1005 29.6998C30.1005 29.5998 30.1005 29.5998 30.1005 29.5998C30.3005 29.1998 30.5005 28.8998 30.7005 28.4998C30.7005 28.3998 30.8005 28.2998 30.8005 28.2998C30.6005 28.2998 30.4005 28.2998 30.1005 28.2998H30.0005C29.7005 28.2998 29.5005 28.2998 29.2005 28.2998C29.1005 28.2998 28.9005 28.2998 28.8005 28.2998C28.6005 28.2998 28.5005 28.2998 28.3005 28.2998C28.1005 28.2998 27.6005 28.3998 27.3005 28.3998C27.2005 28.3998 27.2005 28.4998 27.2005 28.4998C27.2005 28.6998 27.6005 29.5998 27.6005 29.6998C27.6005 29.7998 27.5005 29.9998 27.3005 29.9998H27.2005C26.9005 29.8998 26.5005 28.6998 26.5005 28.3998C26.5005 28.0998 26.8005 27.8998 26.9005 27.8998C27.0005 27.6998 27.4005 27.0998 27.9005 26.4998C28.2005 26.1998 28.3005 26.0998 28.7005 25.7998C28.7005 25.7998 28.9005 25.6998 28.9005 25.5998C28.8005 25.2998 28.5005 25.0998 28.2005 24.9998C28.0005 24.9998 27.9005 24.7998 27.9005 24.6998C27.9005 24.4998 28.1005 24.2998 28.3005 24.2998H28.4005C29.1005 24.3998 29.5005 25.0998 29.8005 25.5998C30.0005 25.8998 30.1005 26.2998 30.3005 26.5998C30.4005 26.7998 30.5005 27.2998 30.6005 27.2998C30.6005 27.3998 30.7005 27.3998 30.7005 27.3998C30.9005 27.4998 31.0005 27.5998 31.1005 27.5998ZM29.5005 27.5998C29.6005 27.5998 29.7005 27.5998 29.9005 27.5998C29.8005 27.3998 29.8005 27.2998 29.7005 27.0998C29.6005 26.7998 29.5005 26.4998 29.4005 26.1998V26.0998C29.1005 26.2998 28.9005 26.5998 28.7005 26.7998C28.5005 26.9998 28.3005 27.2998 28.1005 27.5998C28.3005 27.5998 28.5005 27.5998 28.7005 27.5998C29.0005 27.5998 29.3005 27.5998 29.5005 27.5998Z" fill="white"/>
        <path d="M34.6002 24.5996C35.0002 24.5996 35.2002 24.6996 35.4002 24.8996C35.7002 25.0996 35.8002 25.4996 35.8002 25.8996C35.8002 26.3996 35.6002 26.9996 35.4002 27.3996C35.3002 27.4996 35.2002 27.5996 35.2002 27.6996C34.8002 27.9996 34.4002 28.1996 33.9002 28.1996C33.6002 28.1996 33.4002 28.1996 33.1002 28.0996C33.2002 29.6996 33.4002 31.2996 34.1002 32.7996V32.8996C34.1002 32.9996 34.1002 33.0996 34.0002 33.0996C33.9002 33.1996 33.8002 33.1996 33.7002 33.1996C33.6002 33.1996 33.5002 33.1996 33.4002 33.0996L33.3002 32.9996C32.9002 32.1996 32.3002 29.8996 32.2002 27.9996C32.2002 26.7996 32.3002 25.6996 32.9002 25.0996C33.2002 24.7996 33.7002 24.5996 34.2002 24.5996C34.4002 24.5996 34.5002 24.5996 34.6002 24.5996ZM33.0002 27.2996C33.2002 27.2996 33.4002 27.3996 33.6002 27.3996C34.0002 27.3996 34.3002 27.2996 34.5002 27.0996C34.6002 26.9996 34.7002 26.8996 34.8002 26.6996C35.0002 26.3996 35.0002 26.0996 35.0002 25.9996C35.0002 25.6996 34.9002 25.5996 34.8002 25.4996C34.7002 25.3996 34.6002 25.3996 34.5002 25.3996C34.2002 25.3996 33.9002 25.5996 33.6002 25.7996C33.4002 25.9996 33.3002 26.0996 33.2002 26.2996L33.1002 26.5996C33.0002 26.8996 33.0002 27.0996 33.0002 27.2996Z" fill="white"/>
        <path d="M39.4006 28.6C39.3006 28.6 39.3006 28.6 39.4006 28.6C38.4006 29.2 37.3006 30 36.8006 30.9C36.6006 31.2 36.6006 31.4 36.6006 31.7C36.6006 32 36.8006 32.4 37.2006 32.6C37.5006 32.7 37.9006 32.8 38.2006 32.8C38.6006 32.8 38.9006 32.7 39.1006 32.3C39.9006 30.8 39.9006 29.1 39.9006 27.4C39.9006 27 39.9006 26.7 39.8006 26.3C39.4006 27 38.9006 27.6 38.1006 27.6C38.1006 27.6 38.1006 27.6 38.0006 27.6H37.9006C36.9006 27.5 36.8006 26.5 36.7006 25.7C36.7006 25.3 36.7006 24.9 36.7006 24.6C36.7006 24.4 36.9006 24.2 37.1006 24.2C37.3006 24.2 37.5006 24.3 37.5006 24.6C37.5006 24.7 37.5006 25 37.5006 25.3C37.5006 26 37.7006 26.8 38.0006 26.8C38.1006 26.8 38.1006 26.8 38.2006 26.7C39.0006 26.2 39.5006 25.2 39.6006 24.3C39.6006 24.1 39.8006 24 39.9006 24C40.1006 24 40.3006 24.1 40.3006 24.4C40.3006 25.4 40.4006 26.4 40.5006 27.4C40.5006 27.5 40.5006 27.5 40.5006 27.6V27.7C40.5006 28.6 40.5006 29.5 40.3006 30.4C39.9006 33.1 38.7006 33.5 38.0006 33.5C37.8006 33.5 37.7006 33.5 37.7006 33.5C37.2006 33.5 35.6006 33.2 35.6006 31.7C35.6006 31.5 35.6006 31.3 35.7006 30.9C36.2006 29.6 37.5006 28.6 38.7006 27.9C38.8006 27.9 38.8006 27.8 38.9006 27.8C39.1006 27.8 39.3006 28 39.3006 28.2C39.5006 28.4 39.4006 28.5 39.4006 28.6Z" fill="white"/>
        <path d="M44.2004 31.5002C44.0004 31.6002 43.9004 31.6002 43.7004 31.6002C42.7004 31.6002 41.8004 30.8002 41.5004 30.0002C41.4004 29.8002 41.4004 29.6002 41.4004 29.4002C41.4004 28.5002 42.1004 27.8002 43.2004 27.6002C43.2004 27.6002 43.2004 27.6002 43.3004 27.6002C43.6004 27.6002 43.7004 27.8002 43.7004 28.0002C43.7004 28.2002 43.6004 28.3002 43.4004 28.3002C42.4004 28.5002 42.1004 28.9002 42.2004 29.3002C42.2004 30.0002 43.1004 30.7002 43.8004 30.7002C44.1004 30.7002 44.3004 30.6002 44.4004 30.3002C44.7004 29.7002 45.0004 28.7002 45.0004 27.8002C45.0004 26.9002 44.6004 26.1002 43.6004 26.0002C43.4004 26.0002 43.3004 25.8002 43.3004 25.7002C43.3004 25.5002 43.4004 25.4002 43.6004 25.3002C43.6004 25.2002 43.8004 24.9002 43.8004 24.8002C43.8004 24.7002 43.8004 24.6002 43.8004 24.5002C43.8004 24.3002 43.7004 24.3002 43.6004 24.3002C43.4004 24.3002 43.1004 24.4002 42.9004 24.7002C42.8004 24.8002 42.7004 24.8002 42.6004 24.8002C42.4004 24.8002 42.1004 24.7002 42.1004 24.5002C42.1004 24.4002 42.1004 24.4002 42.2004 24.3002C42.5004 24.0002 43.3004 23.3002 44.0004 23.2002C44.3004 23.2002 44.6004 23.3002 44.7004 23.7002C44.7004 23.7002 44.7004 23.7002 44.7004 23.8002C44.7004 23.9002 44.7004 24.0002 44.7004 24.1002C44.7004 24.5002 44.6004 25.0002 44.4004 25.4002C45.3004 25.9002 45.6004 26.8002 45.7004 27.7002V27.9002V28.0002C45.8004 29.2002 45.6004 31.1002 44.2004 31.5002Z" fill="white"/>
        <path d="M48.6004 26.7998H48.7004C48.9004 26.7998 49.1004 26.9998 49.1004 27.1998C49.1004 27.3998 49.0004 27.4998 48.8004 27.5998C48.6004 27.6998 48.4004 27.6998 48.3004 27.6998C47.3004 27.6998 47.0004 26.8998 46.9004 25.9998C46.9004 25.3998 47.0004 24.8998 47.1004 24.3998C47.2004 24.1998 47.3004 24.0998 47.5004 24.0998C47.7004 24.0998 47.9004 24.1998 47.9004 24.4998V24.5998C47.8004 24.8998 47.6004 25.4998 47.7004 25.9998C47.7004 26.4998 47.9004 26.7998 48.3004 26.7998C48.4004 26.8998 48.5004 26.8998 48.6004 26.7998ZM48.1004 23.6998C47.9004 23.6998 47.7004 23.5998 47.7004 23.2998C47.7004 23.2998 47.6004 23.1998 47.6004 23.0998C47.6004 22.9998 47.6004 22.9998 47.6004 22.9998V22.8998V22.7998C47.6004 22.4998 47.9004 22.2998 48.1004 22.2998C48.2004 22.2998 48.2004 22.2998 48.2004 22.2998C48.4004 22.3998 48.5004 22.4998 48.6004 22.7998V22.8998C48.6004 23.0998 48.5004 23.3998 48.3004 23.5998C48.3004 23.6998 48.2004 23.6998 48.1004 23.6998Z" fill="white"/>
        <path d="M44.3003 15.3004C44.0003 14.8004 43.4003 14.5004 42.8003 14.4004C42.6003 15.0004 42.7003 15.6004 43.0003 16.1004C43.3003 16.6004 43.9003 16.9004 44.5003 17.0004C44.7003 16.5004 44.7003 15.9004 44.3003 15.3004Z" fill="white"/>
        <path d="M46.4002 16.8003C46.9002 16.5003 47.2002 15.9003 47.3002 15.3003C46.7002 15.1003 46.1002 15.2003 45.6002 15.5003C45.1002 15.8003 44.8002 16.4003 44.7002 17.0003C45.3002 17.3003 45.9002 17.2003 46.4002 16.8003Z" fill="white"/>
        <path d="M45.7005 14.2C45.5005 14.4 45.1005 14.4 44.9005 14.2C44.7005 14 44.7005 13.6 44.9005 13.4C45.1005 13.2 45.5005 13.2 45.7005 13.4C45.9005 13.7 45.9005 14 45.7005 14.2Z" fill="white"/>
        <path d="M23.3004 29.3004C23.2004 29.9004 23.4004 30.5004 23.8004 30.9004C24.3004 30.6004 24.7004 30.1004 24.8004 29.5004C24.9004 28.9004 24.7004 28.3004 24.3004 27.9004C23.7004 28.2004 23.4004 28.7004 23.3004 29.3004Z" fill="white"/>
        <path d="M22.7006 26.7999C22.1006 26.6999 21.5006 26.8999 21.1006 27.2999C21.4006 27.7999 21.9006 28.1999 22.5006 28.2999C23.1006 28.3999 23.7006 28.1999 24.1006 27.7999C23.8006 27.2999 23.3006 26.8999 22.7006 26.7999Z" fill="white"/>
        <path d="M21.5005 29.2002C21.8005 29.2002 22.1005 29.4002 22.1005 29.7002C22.1005 30.0002 21.9005 30.3002 21.6005 30.3002C21.3005 30.3002 21.0005 30.1002 21.0005 29.8002C21.0005 29.5002 21.2005 29.2002 21.5005 29.2002Z" fill="white"/>
        <path d="M50.2002 18.4C50.0002 17.9 49.7002 17.7 49.3002 17.5C48.0002 19 44.8002 19 44.2002 19C43.7002 19.2 43.4002 19.4 43.2002 19.8C43.5002 20.1 43.7002 22.1 43.0002 22.1C42.4002 22.1 42.7002 20 43.0002 19.5C42.9002 19.2 42.7002 18.8 42.4002 18.6C41.7002 18.7 41.1002 18.9 40.5002 19.1C40.4002 18.9 40.1002 18.8 39.9002 18.8C39.4002 18.8 38.6002 19.2 38.3002 19.5C38.3002 19.3 38.3002 19.1 38.3002 19C38.3002 18.9 38.3002 18.8 38.3002 18.7C39.7002 18.3 41.0002 17.6 41.3002 15.7C41.5002 14.7 40.9002 14 39.9002 14C37.7002 14 37.0002 17.6 37.0002 19.6C37.0002 20.1 37.1002 20.7 37.2002 21.1C36.9002 21.4 36.4002 21.9 36.1002 22C36.1002 21.2 36.2002 20.1 36.4002 19.3C36.1002 19 35.7002 19 35.2002 19C35.2002 19.1 35.1002 19.3 35.1002 19.5C34.7002 20.2 33.8002 21.9 33.2002 21.9C33.3002 21.1 33.9002 19.8 34.1002 19.4C34.0002 19.1 33.8002 18.8 33.5002 18.5C32.3002 18.7 31.1002 19.2 30.2002 19.7C30.3002 20.2 30.5002 20.5 30.8002 20.8C31.4002 20.4 32.0002 20.1 32.6002 19.9C32.1002 20.8 32.0002 21.7 32.0002 22.1C32.0002 22.8 32.3002 23.1 32.8002 23.1C33.4002 23.1 34.2002 22.8 34.9002 21.6V21.8C34.9002 22.6 35.3002 23 35.7002 23C36.4002 23.1 37.0002 22.5 37.4002 22C37.7002 22.6 38.1002 22.9 38.6002 22.9C39.7002 22.9 40.5002 21.6 40.6002 20.4C40.6002 20.2 40.6002 20 40.6002 19.9C40.9002 19.8 41.1002 19.7 41.4002 19.6C41.2002 20.1 41.1002 20.5 41.1002 21.1C41.3002 22 41.9002 23 42.9002 23C44.1002 23 44.6002 21.9 44.6002 20.8C44.6002 20.6 44.6002 20.4 44.5002 20.1C46.5002 20.2 48.9002 19.8 50.2002 18.4ZM39.9002 14.9C40.1002 14.9 40.2002 15.2 40.1002 15.6C39.9002 16.2 39.5002 16.9 38.5002 17.3C38.8002 16 39.4002 14.9 39.9002 14.9ZM38.8002 21.9C38.6002 21.5 38.5002 21.1 38.4002 20.7C38.8002 20.4 39.3002 20 39.6002 19.9C39.7002 20.5 39.2002 21.7 38.8002 21.9Z" fill="white"/>
        <path d="M31.4004 21.8002C31.3004 21.8002 31.0004 21.7002 30.6004 21.7002C30.5004 21.1002 30.4004 20.4002 30.0004 19.8002C29.1004 18.0002 26.9004 15.1002 25.0004 16.0002C24.2004 16.4002 23.9004 17.2002 24.2004 18.0002C24.7004 18.0002 25.0004 18.0002 25.4004 17.7002C25.3004 17.4002 25.3004 17.0002 25.5004 16.9002C25.9004 16.7002 27.1004 17.5002 28.0004 18.7002C27.2004 19.5002 26.1004 21.0002 25.7004 22.2002C23.1004 22.8002 21.1004 23.9002 19.9004 25.2002C20.1004 25.6002 20.4004 25.8002 20.8004 26.1002C23.3004 23.4002 28.3004 22.7002 30.5004 23.0002C30.4004 23.5002 30.2004 23.9002 30.1004 24.3002C30.4004 24.6002 30.9004 24.8002 31.3004 24.8002C31.6004 24.1002 31.8004 23.4002 32.0004 22.5002C31.8004 22.3002 31.6004 22.0002 31.4004 21.8002ZM28.5004 19.6002C28.5004 19.7002 28.6004 19.7002 28.6004 19.8002C28.9004 20.4002 29.2004 21.1002 29.3004 21.7002C28.7004 21.7002 27.9004 21.8002 27.1004 21.9002C27.5004 21.1002 28.0004 20.2002 28.5004 19.6002Z" fill="white"/>
        <path d="M11.4001 51.3994C11.2001 51.7994 10.8001 51.8994 10.5001 51.6994C10.1001 51.4994 10.0001 51.0994 10.2001 50.7994C10.4001 50.3994 10.8001 50.2994 11.1001 50.4994C11.4001 50.5994 11.6001 51.0994 11.4001 51.3994Z" fill="#F8AF07"/>
        <path d="M60.7005 41.9999C60.4005 42.5999 59.7005 42.8999 59.1005 42.5999C58.5005 42.2999 58.2005 41.5999 58.5005 40.9999C58.8005 40.3999 59.5005 40.0999 60.1005 40.3999C60.8005 40.6999 61.0005 41.3999 60.7005 41.9999Z" fill="#F8AF07"/>
        <path d="M14.6001 36.8C14.5001 37 14.3001 37.1 14.1001 37C13.9001 36.9 13.8001 36.7 13.9001 36.5C14.0001 36.3 14.2001 36.2 14.4001 36.3C14.6001 36.4 14.7001 36.6 14.6001 36.8Z" fill="#F8AF07"/>
        <path d="M53.7002 63.3996C53.6002 63.5996 53.4002 63.6996 53.2002 63.5996C53.0002 63.4996 52.9002 63.2996 53.0002 63.0996C53.1002 62.8996 53.3002 62.7996 53.5002 62.8996C53.7002 62.9996 53.8002 63.1996 53.7002 63.3996Z" fill="#F8AF07"/>
        <path d="M46.7002 34.5998C46.6002 34.7998 46.4002 34.8998 46.2002 34.7998C46.0002 34.6998 45.9002 34.4998 46.0002 34.2998C46.1002 34.0998 46.3002 33.9998 46.5002 34.0998C46.7002 34.1998 46.8002 34.3998 46.7002 34.5998Z" fill="#F8AF07"/>
        <path d="M33.3004 6.39976C33.2004 6.69976 32.9004 6.79975 32.6004 6.59975C32.3004 6.49975 32.2004 6.19976 32.4004 5.89976C32.5004 5.59976 32.8004 5.49975 33.1004 5.69975C33.3004 5.79975 33.4004 6.09976 33.3004 6.39976Z" fill="#F8AF07"/>
        <path d="M37.1001 35.5998C37.0001 35.7998 36.8001 35.8998 36.6001 35.7998C36.4001 35.6998 36.3001 35.4998 36.4001 35.2998C36.5001 35.0998 36.7001 34.9998 36.9001 35.0998C37.1001 35.1998 37.2001 35.3998 37.1001 35.5998Z" fill="white"/>
        <path d="M12.1003 40.8995C11.9003 41.1995 11.5003 41.3995 11.2003 41.1995C10.9003 40.9995 10.7003 40.5995 10.9003 40.2995C11.1003 39.9995 11.5003 39.7995 11.8003 39.9995C12.1003 40.1995 12.2003 40.5995 12.1003 40.8995Z" fill="white"/>
        <path d="M8.10027 56.7995C7.90027 57.2995 7.30027 57.4995 6.80027 57.2995C6.30027 57.0995 6.10027 56.4995 6.30027 55.9995C6.50027 55.4995 7.10027 55.2995 7.60027 55.4995C8.10027 55.7995 8.30027 56.2995 8.10027 56.7995Z" fill="white"/>
        <path d="M15.5001 62.0997C15.3001 62.5997 14.7001 62.7997 14.1001 62.5997C13.6001 62.3997 13.4001 61.7997 13.6001 61.1997C13.8001 60.6997 14.4001 60.4997 15.0001 60.6997C15.5001 60.8997 15.7001 61.4997 15.5001 62.0997Z" fill="white"/>
        <path d="M62.1002 54.0001C61.9002 54.5001 61.3002 54.7001 60.7002 54.5001C60.2002 54.3001 60.0002 53.7001 60.2002 53.1001C60.4002 52.6001 61.0002 52.4001 61.6002 52.6001C62.1002 52.8001 62.3002 53.5001 62.1002 54.0001Z" fill="white"/>
        <path d="M54.2003 35.0997C54.0003 35.5997 53.4003 35.7997 52.8003 35.5997C52.3003 35.3997 52.1003 34.7997 52.3003 34.1997C52.5003 33.6997 53.1003 33.4997 53.7003 33.6997C54.2003 33.9997 54.4003 34.5997 54.2003 35.0997Z" fill="white"/>
        <path d="M59.6002 59.8998C59.5002 60.1998 59.2002 60.2998 58.9002 60.0998C58.6002 59.9998 58.5002 59.6998 58.7002 59.3998C58.8002 59.0998 59.1002 58.9998 59.4002 59.1998C59.6002 59.2998 59.7002 59.5998 59.6002 59.8998Z" fill="white"/>
        <path d="M33.0001 11.5001C32.8001 12.0001 32.2001 12.2001 31.6001 12.0001C31.1001 11.8001 30.9001 11.2001 31.1001 10.6001C31.3001 10.1001 31.9001 9.90008 32.5001 10.1001C33.0001 10.4001 33.2001 11.0001 33.0001 11.5001Z" fill="white"/>
        <path d="M39.7003 9.09995C39.6003 9.39995 39.3003 9.49995 39.0003 9.29995C38.7003 9.19995 38.6003 8.89995 38.8003 8.59995C38.9003 8.29995 39.2003 8.19995 39.5003 8.39995C39.7003 8.49995 39.8003 8.79995 39.7003 9.09995Z" fill="white"/>
        <path d="M25.4004 12.4C25.3004 12.5 25.2004 12.6 25.1004 12.5C25.0004 12.4 24.9004 12.3 25.0004 12.2C25.0004 12 25.2004 12 25.3004 12C25.4004 12.1 25.5004 12.2 25.4004 12.4Z" fill="white"/>
    </g>
    <defs>
        <clipPath id="clip0_6875_181653">
            <rect width="70" height="70" fill="white"/>
        </clipPath>
    </defs>
</svg>