<svg width="70" height="70" viewBox="0 0 70 70" fill="none" xmlns="http://www.w3.org/2000/svg">
    <path d="M42.9909 64.8217C41.6245 67.8741 38.5611 70.0009 35.0004 70.0009C31.4397 70.0009 28.3763 67.8742 27.01 64.8217C24.3003 66.7822 20.5833 67.092 17.5002 65.3117C14.4163 63.5314 12.8261 60.1579 13.1696 56.8313C9.84302 57.1743 6.46944 55.5841 4.68951 52.5007C2.90873 49.4172 3.21891 45.7006 5.17914 42.9912C2.12686 41.625 0 38.5612 0 35.0007C0 31.4402 2.12686 28.3763 5.17914 27.0101C3.21891 24.3007 2.90873 20.584 4.68951 17.5005C6.46944 14.4171 9.84302 12.827 13.1696 13.17C12.8269 9.84355 14.4163 6.46987 17.5002 4.68962C20.5841 2.90937 24.3003 3.21923 27.01 5.17946C28.3763 2.12686 31.4397 0 35.0004 0C38.5603 0 41.6245 2.12654 42.9909 5.17893C45.7005 3.2187 49.4167 2.90894 52.5006 4.68919C55.5837 6.46944 57.1731 9.84302 56.8304 13.1696C60.157 12.8266 63.5306 14.4167 65.3113 17.5002C67.0913 20.5837 66.7819 24.3002 64.8217 27.0097C67.874 28.3759 70 31.4397 70 35.0002C70 38.5607 67.8731 41.6245 64.8209 42.9908C66.7811 45.7002 67.0913 49.4169 65.3113 52.5003C63.5306 55.5838 60.157 57.1738 56.8304 56.8309C57.1731 60.1573 55.5837 63.531 52.5006 65.3113C49.4167 67.0914 45.7005 66.7818 42.9909 64.8217Z" fill="#FFE01D"/>
    <path d="M32.7181 16.4971H37.2819L44.5703 34.0426H39.4616L38.2015 30.928H31.6623L30.4362 34.0426H25.4297L32.7181 16.4971ZM36.9073 27.1905L35 22.2418L33.0587 27.1905H36.9073Z" fill="#FA0F0C"/>
    <path d="M13.6736 34.1029L10.5375 34.2635C10.0786 34.287 9.78829 34.6086 9.81571 35.144C9.84313 35.6794 10.1647 35.9697 10.6237 35.9462L13.7597 35.7856L13.8028 36.627C13.8302 37.1625 14.1519 37.4527 14.6108 37.4292C15.0697 37.4057 15.36 37.0841 15.3326 36.5487L15.1603 33.1832C15.1329 32.6478 14.8112 32.3575 14.3523 32.381C13.8934 32.4045 13.6031 32.7261 13.6305 33.2615L13.6736 34.1029Z" fill="black"/>
    <path d="M15.1953 39.0277C15.6423 38.921 15.8691 38.5518 15.7445 38.0304C15.62 37.5089 15.2509 37.2821 14.8039 37.3888L10.9302 38.314C10.4832 38.4207 10.2564 38.7899 10.3809 39.3113C10.5055 39.8328 10.8746 40.0596 11.3216 39.9529L15.1953 39.0277Z" fill="black"/>
    <path d="M14.5524 42.9007L15.5242 42.4475L15.9612 43.3846L13.1153 44.7118C12.6989 44.906 12.5507 45.3132 12.7773 45.7991C13.0039 46.2849 13.411 46.4331 13.8275 46.2389L17.3675 44.5879C17.784 44.3937 17.9322 43.9866 17.7055 43.5007L16.5564 41.0366C16.3298 40.5507 15.9226 40.4025 15.5062 40.5968L13.8403 41.3737C12.2438 42.1182 12.1377 40.9846 11.4435 41.3083C11.0271 41.5025 10.8789 41.9097 11.0731 42.3261C11.494 43.2285 12.8171 43.71 14.5524 42.9007Z" fill="black"/>
    <path d="M17.322 48.0734C17.5665 48.3681 17.5364 48.6916 17.3301 48.8628C17.1238 49.0339 16.8002 49.0038 16.5557 48.7091L16.1156 48.1785L16.8819 47.5428L17.322 48.0734ZM17.943 46.6627L18.6504 46.0759C19.0041 45.7825 19.0442 45.3511 18.702 44.9385C18.3597 44.5258 17.9283 44.4856 17.5746 44.779L14.5683 47.2729C14.2146 47.5663 14.1744 47.9977 14.5167 48.4103L15.4947 49.5892C16.4726 50.7682 17.659 50.8787 18.4548 50.2186C19.2505 49.5584 19.3611 48.3721 18.3831 47.1932L17.943 46.6627Z" fill="black"/>
    <path d="M20.9904 52.1564L21.0787 54.2537C21.0787 54.2537 21.1022 54.7436 21.4433 54.9907C21.8775 55.3052 22.3053 55.2369 22.5749 54.8647C22.7546 54.6166 22.7312 54.1268 22.7312 54.1268L22.6428 52.0294L24.1177 51.8211C24.1177 51.8211 24.5006 51.8148 24.7253 51.5047C24.9949 51.1325 24.9265 50.7047 24.5544 50.4351C24.2442 50.2104 23.9234 50.2617 23.9234 50.2617L21.6153 50.5757L22.2443 49.7074C22.5139 49.3352 22.4455 48.9074 22.0114 48.5929C21.5772 48.2784 21.1494 48.3467 20.8798 48.7189L18.5433 51.9441C18.2737 52.3163 18.3421 52.7441 18.7763 53.0586C19.2104 53.3732 19.6383 53.3048 19.9078 52.9327L20.4246 52.2194L20.9904 52.1564Z" fill="black"/>
    <path d="M25.9593 53.9683L26.5661 52.3145C26.7244 51.8831 26.5423 51.49 26.039 51.3053C25.5357 51.1207 25.1425 51.3027 24.9842 51.7342L23.6124 55.4731C23.4568 55.8973 23.6362 56.2976 24.1396 56.4823C24.571 56.6406 24.915 56.4813 25.41 56.1326L27.2391 54.9273L27.311 54.9537L26.7042 56.6075C26.546 57.0389 26.728 57.432 27.2314 57.6167C27.7347 57.8013 28.1278 57.6193 28.2861 57.1878L29.6579 53.4489C29.8135 53.0247 29.6341 52.6244 29.1308 52.4397C28.6994 52.2814 28.3554 52.4407 27.8603 52.7894L26.0312 53.9947L25.9593 53.9683Z" fill="black"/>
    <path d="M34.5337 53.97C34.5191 53.5107 34.2031 53.2143 33.6672 53.2314C33.1314 53.2485 32.835 53.5645 32.8496 54.0238L32.9767 58.0044C32.9914 58.4637 33.3074 58.7601 33.8432 58.743C34.3791 58.7259 34.6755 58.41 34.6608 57.9507L34.6217 56.7258L36.1527 56.677L36.1918 57.9018C36.2065 58.3611 36.5225 58.6575 37.0583 58.6404C37.5942 58.6233 37.8906 58.3073 37.8759 57.848L37.7489 53.8674C37.7342 53.4081 37.4182 53.1117 36.8824 53.1288C36.3465 53.1459 36.0501 53.4619 36.0647 53.9212L36.1063 55.2225L34.5753 55.2714L34.5337 53.97Z" fill="black"/>
    <path d="M40.3135 55.3762L40.392 54.1551L40.4654 54.1334L41.1949 55.1158L40.3135 55.3762ZM40.3735 56.796L41.916 56.3403L42.2298 56.7268C42.5436 57.1132 42.9242 57.3202 43.3282 57.2009C43.8056 57.0599 44.0385 56.6317 43.9192 56.2277C43.8541 56.0074 43.5403 55.6209 43.5403 55.6209L41.4537 52.8831C41.0779 52.3952 40.6424 52.1645 39.9079 52.3814C39.1734 52.5984 38.9405 53.0266 38.8829 53.6426L38.619 57.0747C38.619 57.0747 38.5656 57.5697 38.6307 57.79C38.75 58.194 39.1782 58.4269 39.6557 58.2858C40.0596 58.1665 40.2666 57.7859 40.3201 57.2909L40.3735 56.796Z" fill="black"/>
    <path d="M46.2385 53.4589C47.0291 54.4934 48.4247 54.68 49.6723 53.7267C50.7981 52.8664 50.9416 51.7928 50.6161 51.3668C50.3603 51.0321 49.9846 50.9819 49.5282 51.3307C49.0413 51.7027 49.306 52.1752 48.7887 52.5705C48.3931 52.8727 47.91 52.8081 47.6078 52.4126L46.9567 51.5606C46.6545 51.165 46.719 50.6819 47.1146 50.3797C47.571 50.0309 47.9574 50.4104 48.4442 50.0384C48.9007 49.6896 48.9509 49.3138 48.6951 48.9791C48.3696 48.5531 47.296 48.4096 46.231 49.2234C44.9835 50.1767 44.7969 51.5724 45.5875 52.6069L46.2385 53.4589Z" fill="black"/>
    <path d="M51.7116 48.1142L51.0698 47.0724L51.1172 47.0122L52.2803 47.3922L51.7116 48.1142ZM52.5813 49.238L53.5765 47.9745L54.056 48.1085C54.5355 48.2424 54.9657 48.1914 55.2264 47.8605C55.5344 47.4694 55.477 46.9854 55.1461 46.7247C54.9656 46.5825 54.4861 46.4486 54.4861 46.4486L51.2009 45.4207C50.6122 45.2397 50.1234 45.3032 49.6495 45.9049C49.1756 46.5065 49.2331 46.9905 49.5421 47.5265L51.3107 50.4796C51.3107 50.4796 51.5532 50.9144 51.7337 51.0566C52.0646 51.3172 52.5487 51.2598 52.8567 50.8687C53.1174 50.5378 53.0663 50.1076 52.8238 49.6728L52.5813 49.238Z" fill="black"/>
    <path d="M54.3591 43.3484L52.732 42.6736C52.3075 42.4975 51.9071 42.6632 51.7018 43.1584C51.4964 43.6536 51.662 44.054 52.0865 44.23L55.7653 45.7556C56.1827 45.9287 56.5902 45.766 56.7955 45.2708C56.9716 44.8463 56.8266 44.496 56.4988 43.9869L55.3704 42.1094L55.3997 42.0387L57.0269 42.7135C57.4514 42.8895 57.8517 42.7239 58.0571 42.2287C58.2625 41.7334 58.0969 41.3331 57.6724 41.1571L53.9935 39.6314C53.5761 39.4583 53.1687 39.621 52.9633 40.1163C52.7873 40.5407 52.9322 40.891 53.2601 41.4001L54.3885 43.2776L54.3591 43.3484ZM51.0177 41.0091C50.7976 41.5397 50.4025 41.293 50.1825 41.8236C50.0651 42.1065 50.1893 42.4068 50.4723 42.5242C50.9675 42.7295 51.7682 42.3983 52.1496 41.4786C52.531 40.5588 52.1998 39.7582 51.7046 39.5528C51.4216 39.4354 51.1213 39.5597 51.004 39.8426C50.7839 40.3732 51.2377 40.4785 51.0177 41.0091Z" fill="black"/>
    <path d="M55.2438 37.6181L58.3542 38.0493C58.8094 38.1125 59.1549 37.8511 59.2286 37.32C59.3022 36.789 59.0408 36.4435 58.5856 36.3804L55.4752 35.9491L55.591 35.1146C55.6646 34.5835 55.4032 34.238 54.948 34.1749C54.4929 34.1118 54.1473 34.3731 54.0737 34.9042L53.6108 38.2422C53.5372 38.7732 53.7986 39.1187 54.2538 39.1819C54.7089 39.245 55.0545 38.9836 55.1281 38.4526L55.2438 37.6181Z" fill="black"/>
    <path d="M54.6756 32.4042C54.2166 32.426 53.925 32.7465 53.9504 33.282C53.9757 33.8175 54.2962 34.109 54.7553 34.0873L58.7335 33.899C59.1925 33.8772 59.484 33.5567 59.4586 33.0212C59.4333 32.4857 59.1128 32.1941 58.6538 32.2159L54.6756 32.4042Z" fill="black"/>
</svg>
