<svg width="24" height="24" viewBox="0 0 24 24" fill="none" xmlns="http://www.w3.org/2000/svg">
    <path d="M3.97686 10.6138L3.89639 10.6602L3.87152 10.6909C3.64577 10.8797 3.43255 11.1725 3.51859 11.5534C3.5936 11.8856 3.86956 12.0923 4.04615 12.2055C4.2506 12.3366 4.50088 12.4507 4.73323 12.5492C4.8557 12.6011 4.96262 12.6446 5.065 12.6862C5.18303 12.7342 5.29503 12.7798 5.41783 12.833L5.44027 12.8427L5.46355 12.8502C5.55166 12.8785 5.64474 12.9096 5.74173 12.942C6.14048 13.0752 6.60548 13.2305 7.06456 13.3078C7.65255 13.4069 8.30751 13.3952 8.92861 13.0374L8.92865 13.0375L8.93663 13.0327C10.2172 12.2629 11.4388 11.3833 12.6375 10.5029C12.5672 10.5694 12.4968 10.636 12.4261 10.7029C11.8915 11.2085 11.346 11.7244 10.8143 12.2718C10.5406 12.5095 10.2551 12.8658 10.1096 13.2717C9.95474 13.7038 9.94615 14.2536 10.3705 14.7047L10.402 14.7383L10.4392 14.7655C11.6302 15.6381 12.8411 16.4903 14.0467 17.3388C14.433 17.6107 14.8187 17.8822 15.2031 18.1538C16.2055 18.9699 17.6457 18.2617 17.8448 17.0795L17.8453 17.0768C17.91 16.6792 17.975 16.2814 18.0401 15.8835C18.3997 13.683 18.7604 11.4763 19.079 9.26351L19.0791 9.26352L19.0802 9.25415C19.1212 8.92549 19.1687 8.58952 19.2169 8.24874C19.337 7.39938 19.4613 6.52023 19.4995 5.65046L19.5012 5.61115L19.4968 5.57205C19.4611 5.2581 19.3343 4.98855 19.1108 4.79518C18.8962 4.6096 18.6398 4.53514 18.4145 4.51057C17.9781 4.46298 17.5127 4.58657 17.2202 4.68857L17.21 4.69215L17.1999 4.69616C14.3991 5.81141 11.6281 7.00858 8.87267 8.22479L8.87264 8.22471L8.86427 8.22859C8.55811 8.37053 8.24587 8.51317 7.93006 8.65744C6.61347 9.2589 5.23491 9.88867 3.97686 10.6138Z" stroke="#1C1C1C"/>
</svg>
