<svg width="24" height="24" viewBox="0 0 24 24" fill="none" xmlns="http://www.w3.org/2000/svg">
    <path fill-rule="evenodd" clip-rule="evenodd" d="M16.8709 15.5763V11.402C17.8147 11.7835 18.8451 11.9917 19.9193 11.9917H20.9488V7.04026H19.9193C19.3387 7.04026 18.7788 6.88039 18.2956 6.57999L18.293 6.57836C17.5702 6.13219 17.0486 5.39539 16.9005 4.54653L16.8967 4.52464L16.8919 4.50296C16.8857 4.47525 16.8802 4.4344 16.8709 4.34457V3H11.8802V9.44882C11.5214 9.31872 11.0318 9.2039 10.4299 9.2039C6.89315 9.2039 4 12.0476 4 15.5763C4 17.7888 5.15061 19.728 6.85713 20.8679C7.88788 21.5601 9.12348 21.9488 10.441 21.9488C13.9778 21.9488 16.8709 19.1051 16.8709 15.5763ZM17.3826 7.12694C17.5095 7.22826 17.6426 7.32201 17.7812 7.40752C18.4204 7.80492 19.1588 8.01466 19.9193 8.01466H19.9744V11.0173H19.9193C19.6165 11.0173 19.3179 10.9985 19.0246 10.9621L19 10.959C18.2483 10.8629 17.5318 10.6505 16.8709 10.3389C16.5304 10.1784 16.2047 9.99163 15.8965 9.78089V15.5763C15.8965 18.5569 13.4498 20.9744 10.441 20.9744C9.31679 20.9744 8.26977 20.6432 7.39909 20.0582C5.94428 19.0867 4.9744 17.4419 4.9744 15.5763C4.9744 12.5958 7.42113 10.1783 10.4299 10.1783C10.8628 10.1783 11.214 10.2532 11.473 10.3388C11.5437 10.3622 11.6076 10.3864 11.6643 10.4101L11.6785 10.4161C11.7551 10.4489 11.8238 10.4851 11.8802 10.518C11.8817 10.5188 11.8831 10.5196 11.8846 10.5205V13.5737L11.8802 13.5707C11.8222 13.531 11.7494 13.4829 11.6533 13.4348C11.5179 13.367 11.3479 13.3021 11.1418 13.2549C10.9452 13.2098 10.7157 13.1809 10.452 13.1809C9.11841 13.1809 8.03832 14.2517 8.03832 15.5763C8.03832 16.5147 8.57837 17.3205 9.3719 17.7069C9.70254 17.8725 10.0662 17.9608 10.463 17.9608C11.6118 17.9608 12.5885 17.1253 12.8084 16.025C12.8375 15.8796 12.8533 15.7296 12.8546 15.5763V3.9744H15.8965V4.39388C15.9075 4.50427 15.9186 4.61466 15.9406 4.71401C16.11 5.68486 16.641 6.53498 17.3826 7.12694ZM11.4064 14.4452L11.3506 14.3893L11.3285 14.3742C11.2814 14.342 11.2613 14.3283 11.217 14.306C11.0897 14.2423 10.8425 14.1553 10.452 14.1553C9.64928 14.1553 9.01272 14.7971 9.01272 15.5763C9.01272 16.128 9.32745 16.6015 9.79845 16.8308L9.80825 16.8356C10.0021 16.9326 10.2162 16.9864 10.463 16.9864C11.2241 16.9864 11.8717 16.3521 11.8802 15.5717V14.9791L11.4064 14.4452Z" fill="#131211"/>
</svg>
