<svg width="24" height="24" viewBox="0 0 24 24" fill="none" xmlns="http://www.w3.org/2000/svg">
    <path d="M21.9998 7.4001C21.5998 4.0001 18.4998 1.0001 15.0998 0.800098C12.9998 0.700098 10.8998 0.700098 8.8998 0.800098C5.3998 1.0001 2.2998 4.0001 1.8998 7.4001C1.7998 9.0001 1.7998 10.6001 1.7998 12.1001C1.8998 15.2001 3.2998 17.5001 5.9998 19.0001C6.1998 19.1001 6.2998 19.3001 6.2998 19.5001C6.2998 20.6001 6.2998 21.6001 6.2998 22.7001C6.2998 22.9001 6.3998 23.1001 6.4998 23.3001C6.7998 23.2001 6.9998 23.2001 7.0998 23.0001C8.0998 22.1001 8.9998 21.1001 9.9998 20.1001C10.0998 20.0001 10.3998 19.9001 10.5998 19.9001C11.8998 19.9001 13.1998 19.9001 14.4998 19.9001C17.9998 19.8001 20.9998 17.4001 21.8998 14.1001C22.1998 12.9001 22.1998 11.6001 22.2998 10.8001C22.0998 9.3001 22.1998 8.3001 21.9998 7.4001Z" stroke="#1C1C1C" stroke-width="0.97"/>
    <path d="M17.0998 15.9001C16.8998 16.1001 16.6998 16.3001 16.4998 16.5001C15.7998 17.4001 14.8998 17.4001 13.9998 17.2001C12.5998 16.8001 11.4998 16.1001 10.3998 15.2001C8.6998 13.7001 7.1998 12.0001 6.2998 9.9001C5.9998 9.3001 5.8998 8.7001 5.7998 8.1001C5.7998 7.5001 5.99981 7.0001 6.39981 6.6001C6.69981 6.3001 6.9998 6.0001 7.2998 5.8001C7.7998 5.3001 8.4998 5.3001 8.9998 5.8001C9.4998 6.3001 9.9998 6.8001 10.4998 7.4001C11.0998 8.0001 10.8998 8.8001 10.0998 9.2001C9.2998 9.6001 9.0998 10.1001 9.3998 10.9001C9.8998 12.2001 10.8998 13.1001 12.0998 13.7001C12.7998 14.0001 13.3998 13.8001 13.7998 13.1001C14.1998 12.3001 14.9998 12.2001 15.5998 12.8001C16.0998 13.3001 16.5998 13.8001 16.9998 14.3001C17.6998 14.7001 17.6998 15.3001 17.0998 15.9001Z" stroke="#1C1C1C" stroke-width="0.97"/>
    <path d="M12.9998 6.29996C12.8998 6.29996 12.7998 6.29996 12.6998 6.29996C12.4998 6.19996 12.4998 5.89996 12.6998 5.69996C12.7998 5.59996 12.9998 5.69996 13.1998 5.69996C15.2998 5.69996 16.8998 7.49996 16.7998 9.59996C16.7998 9.79996 16.6998 10.1 16.3998 9.99996C16.2998 9.99996 16.0998 9.69996 16.0998 9.49996C16.1998 7.69996 14.8998 6.29996 12.9998 6.29996Z" fill="#1C1C1C"/>
    <path d="M15.3 9.2001V9.3001C15.2 9.5001 14.9 9.5001 14.8 9.3001C14.8 9.3001 14.8 9.3001 14.8 9.2001C14.7 8.5001 14.3 8.0001 13.6 7.8001C13.5 7.8001 13.4 7.7001 13.4 7.7001C13.1 7.7001 13 7.6001 13.1 7.3001C13.1 7.2001 13.1 7.2001 13.2 7.2001C13.3 7.1001 13.5 7.1001 13.7 7.1001C14.5 7.4001 15.2 8.3001 15.3 9.2001Z" fill="#1C1C1C"/>
    <path d="M18.2 10.3C18.2 10.4 18.2 10.4 18.2 10.5C18.1 10.7 18.1 10.9 17.8 10.8C17.7 10.8 17.6 10.5 17.6 10.3C17.6 9.69995 17.7 8.99995 17.6 8.39995C17.2 6.29995 15.3 4.89995 13.2 4.79995C13 4.79995 12.9 4.79995 12.7 4.79995C12.6 4.79995 12.5 4.59995 12.5 4.49995C12.5 4.39995 12.6 4.29995 12.7 4.19995C12.9 4.19995 13.1 4.19995 13.3 4.19995C15.8 4.19995 18 6.19995 18.3 8.69995C18.3 9.19995 18.2 9.69995 18.2 10.3Z" fill="#1C1C1C"/>
</svg>
