<svg width="24" height="24" viewBox="0 0 24 24" fill="none" xmlns="http://www.w3.org/2000/svg">
    <path d="M20.6239 7.03406C20.4169 6.23341 19.8069 5.60284 19.0325 5.38885C17.6288 5 12 5 12 5C12 5 6.37127 5 4.96752 5.38885C4.19308 5.60287 3.58314 6.23341 3.37613 7.03406C3 8.48529 3 11.5131 3 11.5131C3 11.5131 3 14.541 3.37613 15.9922C3.58314 16.7929 4.19308 17.3972 4.96752 17.6112C6.37127 18 12 18 12 18C12 18 17.6287 18 19.0325 17.6112C19.8069 17.3972 20.4169 16.7929 20.6239 15.9922C21 14.541 21 11.5131 21 11.5131C21 11.5131 21 8.48529 20.6239 7.03406ZM10.1591 14.2622V8.76408L14.8636 11.5132L10.1591 14.2622Z" stroke="#1C1C1C"/>
</svg>
